<svg width="20" height="20" viewBox="0 0 20 20" fill="none" xmlns="http://www.w3.org/2000/svg">
<path d="M4.36766 5.92893L4.9371 5.44084L4.36766 5.92893ZM16.4895 5.92893L17.0589 6.41702L16.4895 5.92893ZM2.71429 4L2.14484 4.48809H2.14484L2.71429 4ZM18.1429 4L17.5734 3.51191V3.51191L18.1429 4ZM9.57143 18.25C9.15722 18.25 8.82143 18.5858 8.82143 19C8.82143 19.4142 9.15722 19.75 9.57143 19.75V18.25ZM18.1815 16.9389L17.5449 16.5425L18.1815 16.9389ZM17.2334 18.0451L16.7484 17.473L17.2334 18.0451ZM17.2334 1.95491L17.7183 1.38279L17.7183 1.38279L17.2334 1.95491ZM18.1815 3.06107L17.5449 3.45754V3.45754L18.1815 3.06107ZM3.62378 1.95491L3.13883 1.38279L3.13883 1.38279L3.62378 1.95491ZM1.10714 10C1.10714 10.4142 1.44293 10.75 1.85714 10.75C2.27136 10.75 2.60714 10.4142 2.60714 10H1.10714ZM2.67564 3.06107L2.039 2.6646H2.039L2.67564 3.06107ZM1 16.25C0.585786 16.25 0.25 16.5858 0.25 17C0.25 17.4142 0.585786 17.75 1 17.75V16.25ZM6.14286 17.75C6.55707 17.75 6.89286 17.4142 6.89286 17C6.89286 16.5858 6.55707 16.25 6.14286 16.25V17.75ZM1 13.25C0.585786 13.25 0.25 13.5858 0.25 14C0.25 14.4142 0.585786 14.75 1 14.75V13.25ZM3.57143 14.75C3.98564 14.75 4.32143 14.4142 4.32143 14C4.32143 13.5858 3.98564 13.25 3.57143 13.25V14.75ZM2.38945 3.62103L1.69625 3.33472L2.38945 3.62103ZM4.9371 5.44084L3.38772 3.63323L2.24883 4.60942L3.79821 6.41703L4.9371 5.44084ZM17.4694 3.63323L15.92 5.44084L17.0589 6.41702L18.6083 4.60942L17.4694 3.63323ZM3.79821 6.41703C5.21241 8.06693 6.32204 9.36402 7.30518 10.2391C8.29922 11.124 9.27302 11.6789 10.4286 11.6789V10.1789C9.80892 10.1789 9.18084 9.90056 8.30251 9.11872C7.41327 8.32718 6.38004 7.12427 4.9371 5.44084L3.79821 6.41703ZM15.92 5.44084C14.4771 7.12427 13.4439 8.32718 12.5546 9.11872C11.6763 9.90056 11.0482 10.1789 10.4286 10.1789V11.6789C11.5841 11.6789 12.5579 11.124 13.552 10.2391C14.5351 9.36401 15.6447 8.06693 17.0589 6.41702L15.92 5.44084ZM4.9371 5.44084L3.28373 3.51191L2.14484 4.48809L3.79821 6.41703L4.9371 5.44084ZM17.5734 3.51191L15.92 5.44084L17.0589 6.41702L18.7123 4.48809L17.5734 3.51191ZM9.57143 1.75H11.2857V0.25H9.57143V1.75ZM11.2857 18.25H9.57143V19.75H11.2857V18.25ZM18.25 10C18.25 11.8892 18.2492 13.2544 18.1509 14.3134C18.0533 15.3641 17.8653 16.0279 17.5449 16.5425L18.8181 17.3354C19.3162 16.5357 19.5374 15.6049 19.6445 14.4521C19.7508 13.3076 19.75 11.8605 19.75 10H18.25ZM11.2857 19.75C12.8733 19.75 14.1342 19.7514 15.1364 19.6247C16.1606 19.4953 17.0033 19.2233 17.7183 18.6172L16.7484 17.473C16.3368 17.8218 15.8127 18.0273 14.9483 18.1366C14.0618 18.2486 12.9122 18.25 11.2857 18.25V19.75ZM17.5449 16.5425C17.3197 16.9041 17.0501 17.2173 16.7484 17.473L17.7183 18.6172C18.1443 18.2561 18.5147 17.8227 18.8181 17.3354L17.5449 16.5425ZM11.2857 1.75C12.9122 1.75 14.0618 1.7514 14.9483 1.86344C15.8127 1.97271 16.3368 2.17818 16.7484 2.52704L17.7183 1.38279C17.0033 0.776739 16.1606 0.504747 15.1364 0.375285C14.1342 0.248605 12.8733 0.25 11.2857 0.25V1.75ZM16.7484 2.52704C17.0501 2.78272 17.3197 3.09592 17.5449 3.45754L18.8181 2.66461C18.5147 2.17728 18.1443 1.74391 17.7183 1.38279L16.7484 2.52704ZM9.57143 0.25C7.98383 0.25 6.72295 0.248605 5.72074 0.375285C4.69652 0.504747 3.85382 0.776739 3.13883 1.38279L4.10873 2.52704C4.5203 2.17818 5.0444 1.97271 5.90885 1.86344C6.7953 1.7514 7.94497 1.75 9.57143 1.75V0.25ZM3.13883 1.38279C2.7128 1.74391 2.34248 2.17728 2.039 2.6646L3.31228 3.45754C3.53749 3.09592 3.80709 2.78271 4.10873 2.52704L3.13883 1.38279ZM1 17.75H6.14286V16.25H1V17.75ZM1 14.75H3.57143V13.25H1V14.75ZM2.60714 10C2.60714 8.36636 2.6075 7.12181 2.67211 6.12401C2.73673 5.12621 2.86288 4.43946 3.08266 3.90734L1.69625 3.33472C1.38372 4.09142 1.24371 4.96978 1.17525 6.02708C1.10678 7.08437 1.10714 8.3849 1.10714 10H2.60714ZM3.08266 3.90734C3.14972 3.74495 3.22582 3.59638 3.31228 3.45754L2.039 2.6646C1.90675 2.87697 1.79336 3.09961 1.69625 3.33472L3.08266 3.90734ZM3.28373 3.51191L2.9589 3.13294L1.82001 4.10912L2.14484 4.48809L3.28373 3.51191ZM19.75 10C19.75 8.3849 19.7504 7.08437 19.6819 6.02708C19.6134 4.96978 19.4734 4.09142 19.1609 3.33472L17.7745 3.90734C17.9943 4.43946 18.1204 5.12621 18.185 6.12401C18.2496 7.12181 18.25 8.36636 18.25 10H19.75ZM19.1609 3.33472C19.0638 3.09961 18.9504 2.87697 18.8181 2.66461L17.5449 3.45754C17.6313 3.59638 17.7074 3.74495 17.7745 3.90734L19.1609 3.33472ZM18.7123 4.48809L19.0371 4.10912L17.8982 3.13293L17.5734 3.51191L18.7123 4.48809Z" fill="#9098A6"/>
</svg>
