<svg width="21" height="20" viewBox="0 0 21 20" fill="none" xmlns="http://www.w3.org/2000/svg">
<path d="M12 9.12042e-07C13.83 -0.000872552 15.6049 0.625667 17.0288 1.77513C18.4528 2.92458 19.4396 4.52748 19.8247 6.31647C20.2098 8.10546 19.9699 9.97241 19.145 11.6059C18.3202 13.2395 16.9602 14.5408 15.292 15.293C14.7588 16.4719 13.9475 17.5039 12.9279 18.3004C11.9082 19.097 10.7106 19.6343 9.43763 19.8663C8.1647 20.0984 6.85449 20.0182 5.61936 19.6327C4.38423 19.2472 3.26103 18.5678 2.34611 17.6529C1.43118 16.738 0.751827 15.6148 0.36631 14.3796C-0.0192083 13.1445 -0.0993854 11.8343 0.132654 10.5614C0.364694 9.28844 0.902025 8.0908 1.69857 7.07114C2.49511 6.05148 3.52708 5.24024 4.70599 4.707C5.34014 3.30389 6.36558 2.1135 7.65934 1.27861C8.9531 0.443714 10.4602 -0.000237065 12 9.12042e-07V9.12042e-07ZM7.99999 6C7.21206 6 6.43185 6.1552 5.70389 6.45672C4.97594 6.75825 4.31451 7.20021 3.75735 7.75736C3.2002 8.31451 2.75825 8.97595 2.45672 9.7039C2.15519 10.4319 1.99999 11.2121 1.99999 12C1.99999 12.7879 2.15519 13.5681 2.45672 14.2961C2.75825 15.0241 3.2002 15.6855 3.75735 16.2426C4.31451 16.7998 4.97594 17.2417 5.70389 17.5433C6.43185 17.8448 7.21206 18 7.99999 18C9.59129 18 11.1174 17.3679 12.2426 16.2426C13.3679 15.1174 14 13.5913 14 12C14 10.4087 13.3679 8.88258 12.2426 7.75736C11.1174 6.63214 9.59129 6 7.99999 6ZM8.99999 7V8H11V10H6.99999C6.87505 9.99977 6.75454 10.0463 6.66221 10.1305C6.56988 10.2147 6.51241 10.3304 6.50112 10.4548C6.48983 10.5793 6.52554 10.7034 6.60121 10.8028C6.67689 10.9023 6.78705 10.9697 6.90999 10.992L6.99999 11H8.99999C9.66304 11 10.2989 11.2634 10.7678 11.7322C11.2366 12.2011 11.5 12.837 11.5 13.5C11.5 14.163 11.2366 14.7989 10.7678 15.2678C10.2989 15.7366 9.66304 16 8.99999 16V17H6.99999V16H4.99999V14H8.99999C9.12494 14.0002 9.24544 13.9537 9.33778 13.8695C9.43011 13.7853 9.48758 13.6696 9.49887 13.5452C9.51016 13.4207 9.47445 13.2966 9.39877 13.1972C9.3231 13.0977 9.21294 13.0303 9.08999 13.008L8.99999 13H6.99999C6.33695 13 5.70107 12.7366 5.23223 12.2678C4.76339 11.7989 4.49999 11.163 4.49999 10.5C4.49999 9.83696 4.76339 9.20107 5.23223 8.73223C5.70107 8.26339 6.33695 8 6.99999 8V7H8.99999ZM12 2C11.1527 1.99901 10.3148 2.17794 9.54182 2.52496C8.76882 2.87198 8.07832 3.37918 7.51599 4.013C8.64626 3.94439 9.77821 4.1165 10.837 4.51795C11.8958 4.9194 12.8573 5.54105 13.6579 6.34178C14.4586 7.14252 15.0801 8.1041 15.4814 9.16293C15.8828 10.2218 16.0547 11.3537 15.986 12.484C16.8952 11.6756 17.5372 10.6099 17.8268 9.42831C18.1164 8.24668 18.04 7.00491 17.6076 5.86772C17.1753 4.73053 16.4074 3.75164 15.4059 3.06088C14.4044 2.37013 13.2166 2.00014 12 2V2Z" fill="#9098A6"/>
</svg>
