<svg width="20" height="20" viewBox="0 0 20 20" fill="none" xmlns="http://www.w3.org/2000/svg">
<path d="M4.45492 18.7798L4.66542 18.0599L4.45492 18.7798ZM1.24472 15.8906L1.95015 15.6359L1.24472 15.8906ZM18.7553 15.8906L18.0498 15.6359L18.7553 15.8906ZM15.5451 18.7798L15.3346 18.0599L15.5451 18.7798ZM15.5451 6.62025L15.3346 7.3401L15.5451 6.62025ZM18.7553 9.50942L18.0498 9.7641L18.7553 9.50942ZM4.45492 6.62025L4.66542 7.3401L4.45492 6.62025ZM1.24472 9.50942L1.95015 9.7641L1.24472 9.50942ZM9.25 16.3C9.25 16.7142 9.58579 17.05 10 17.05C10.4142 17.05 10.75 16.7142 10.75 16.3H9.25ZM8 7.15H12V5.65H8V7.15ZM12 18.25H8V19.75H12V18.25ZM8 18.25C6.08554 18.25 5.28939 18.2424 4.66542 18.0599L4.24441 19.4996C5.12677 19.7576 6.1919 19.75 8 19.75V18.25ZM0.25 12.7C0.25 14.3113 0.238826 15.313 0.539282 16.1453L1.95015 15.6359C1.76117 15.1124 1.75 14.4391 1.75 12.7H0.25ZM4.66542 18.0599C3.34924 17.675 2.3554 16.7584 1.95015 15.6359L0.539282 16.1453C1.12321 17.7627 2.51621 18.9942 4.24441 19.4996L4.66542 18.0599ZM18.25 12.7C18.25 14.4391 18.2388 15.1124 18.0498 15.6359L19.4607 16.1453C19.7612 15.313 19.75 14.3113 19.75 12.7H18.25ZM12 19.75C13.8081 19.75 14.8732 19.7576 15.7556 19.4996L15.3346 18.0599C14.7106 18.2424 13.9145 18.25 12 18.25V19.75ZM18.0498 15.6359C17.6446 16.7584 16.6508 17.675 15.3346 18.0599L15.7556 19.4996C17.4838 18.9942 18.8768 17.7627 19.4607 16.1453L18.0498 15.6359ZM19.75 12.7C19.75 11.0887 19.7612 10.087 19.4607 9.25475L18.0498 9.7641C18.2388 10.2876 18.25 10.9609 18.25 12.7H19.75ZM15.3346 7.3401C16.6508 7.72498 17.6446 8.64159 18.0498 9.7641L19.4607 9.25475C18.8768 7.63732 17.4838 6.40577 15.7556 5.90039L15.3346 7.3401ZM1.75 12.7C1.75 10.9609 1.76117 10.2876 1.95015 9.7641L0.539282 9.25475C0.238826 10.087 0.25 11.0887 0.25 12.7H1.75ZM4.24441 5.90039C2.51621 6.40577 1.12321 7.63732 0.539282 9.25475L1.95015 9.7641C2.3554 8.64159 3.34924 7.72498 4.66542 7.3401L4.24441 5.90039ZM14.25 5.5V6.4H15.75V5.5H14.25ZM5.75 6.4V5.5H4.25V6.4H5.75ZM10 1.75C12.4235 1.75 14.25 3.50131 14.25 5.5H15.75C15.75 2.52813 13.0994 0.25 10 0.25V1.75ZM10 0.25C6.90065 0.25 4.25 2.52813 4.25 5.5H5.75C5.75 3.50131 7.57651 1.75 10 1.75V0.25ZM9.25 12.7V16.3H10.75V12.7H9.25ZM7.25 10.9C7.25 12.3807 8.5575 13.45 10 13.45V11.95C9.23336 11.95 8.75 11.4075 8.75 10.9H7.25ZM10 13.45C11.4425 13.45 12.75 12.3807 12.75 10.9H11.25C11.25 11.4075 10.7666 11.95 10 11.95V13.45ZM12.75 10.9C12.75 9.4193 11.4425 8.35 10 8.35V9.85C10.7666 9.85 11.25 10.3925 11.25 10.9H12.75ZM10 8.35C8.5575 8.35 7.25 9.4193 7.25 10.9H8.75C8.75 10.3925 9.23336 9.85 10 9.85V8.35ZM8 5.65C6.5856 5.65 5.63252 5.64787 4.88757 5.76082L5.11243 7.24387C5.71748 7.15213 6.53107 7.15 8 7.15V5.65ZM4.88757 5.76082C4.66284 5.79489 4.45079 5.84004 4.24441 5.90039L4.66542 7.3401C4.79863 7.30114 4.94422 7.26937 5.11243 7.24387L4.88757 5.76082ZM4.25 6.4V6.50234H5.75V6.4H4.25ZM12 7.15C13.4689 7.15 14.2825 7.15213 14.8876 7.24387L15.1124 5.76082C14.3675 5.64787 13.4144 5.65 12 5.65V7.15ZM14.8876 7.24387C15.0558 7.26937 15.2014 7.30114 15.3346 7.3401L15.7556 5.90039C15.5492 5.84004 15.3372 5.79489 15.1124 5.76082L14.8876 7.24387ZM14.25 6.4V6.50234H15.75V6.4H14.25Z" fill="#9098A6"/>
</svg>
